#!OML:ASF F:\VICON\USERDATA\INSTALL\rory3\rory3.ASF
:FULLY-SPECIFIED
:DEGREES
115
root 0.7735601002015681 17.877110591212205 40.74348544480765 2.603915428527329 3.566967598061353 1.0359043739126488
lfemur -14.680697454475647 0.9812848289116047 -23.36548052582646
ltibia 40.51865872705585
lfoot -3.3222549738180884 -10.502304047220175
ltoes -7.875627244318946
rfemur -24.191658732001184 4.521481691754615 27.964989864130263
rtibia 62.04183567389585
rfoot 3.823583540046921 -4.618114582929014
rtoes -1.4013682855198346
lowerback 14.345232925059248 -0.3155221232918651 0.21900618566676444
upperback -0.795904972918436 -0.3659443410220593 0.587552417711936
thorax -9.492822901220945 -0.12538909103411489 0.8480340203877428
lowerneck -20.04478557384388 -4.7253333331476295 -1.9826485482735197
upperneck 15.54326636547252 -6.425658009528643 3.1136381814332292
head 8.24619866748247 -3.039683920530827 0.5354473416014257
lclavicle -1.9521729781560437e-15 1.1013548979497733e-15
lhumerus -45.91106003937668 -9.91521943705994 96.77659511900325
lradius 111.55448877939187
lwrist 46.6972374793695
lhand -18.160585336647674 6.576972282528444
lfingers 7.125020000000001
lthumb 8.32957053255133 36.1457725990423
rclavicle -1.952176533109819e-15 1.1013521049827522e-15
rhumerus -50.96947986830559 15.069562112309915 -103.00074885870296
rradius 113.0865526462676
rwrist -15.421966344706837
rhand -23.9178238420703 -99.67869186477468
rfingers 7.125020000000001
rthumb 3.5002167885402926 14.120395843102836
116
root 0.776654444933786 17.899777023877725 39.47965522798282 2.6175479343857955 3.0960222079736948 0.8862541611176455
lfemur -12.778269156748483 1.378620509931273 -22.94206505051195
ltibia 39.77079161877242
lfoot -3.0404084299297365 -10.822732954972524
ltoes -8.119470882317273
rfemur -23.980465606218914 4.523486534007187 27.758461213700098
rtibia 61.122862886486544
rfoot 4.293231151756855 -4.708376009016807
rtoes -1.170241947317255
lowerback 14.210188686956412 -0.3585913213772473 0.17420567228983996
upperback -0.932808027550611 -0.5811763914848151 0.7079904383300113
thorax -9.443033200028864 -0.11467543188026713 1.078392628792504
lowerneck -20.169834349250692 -4.72493806856893 -2.008089429988681
upperneck 15.674083309167019 -6.2934860544035285 3.106956443060823
head 8.27032600845048 -3.008094326577196 0.5495588729336325
lclavicle -1.9521729781560437e-15 1.1013548979497733e-15
lhumerus -45.424367266978095 -9.582698133622166 96.90057685537906
lradius 111.89989554084524
lwrist 46.75620360210099
lhand -18.026777582285963 6.5884209361687684
lfingers 7.125020000000001
lthumb 8.377598064170602 36.175084530182836
rclavicle -1.952176533109819e-15 1.1013521049827522e-15
rhumerus -51.856763008448965 14.774201258714186 -102.89767157265447
rradius 113.05618145560076
rwrist -15.565236760060083
rhand -24.10213145193882 -103.12624712339239
rfingers 7.125020000000001
rthumb 3.6274675647432453 14.199151723561144
117
root 0.7962042916250764 17.962642758645092 40.949875402645795 2.803117746993724 3.248612357937179 1.0571603926057813
lfemur -13.803388030027936 1.086729245073252 -23.736951700405843
ltibia 39.59201843584822
lfoot -0.1700588608620388 -10.561297908714927
ltoes -8.278356240915318
rfemur -26.383009174604656 4.090388573178251 27.07606995525644
rtibia 60.04828541202187
rfoot 4.336240395672542 -4.434833028901161
rtoes -1.020912807607117
lowerback 14.09860872081872 -0.3897807846164582 0.16790694941594309
upperback -1.0247650392613634 -0.6819727379131866 0.8883889295273604
thorax -9.552593863972076 -0.21772796570945685 0.9691414400085403
lowerneck -20.18230641467359 -4.642720215250113 -1.990814772358523
upperneck 15.59633693161876 -6.319238616927896 2.9986383924024635
head 8.25313211932472 -3.0269725625914004 0.5435840827798584
lclavicle -1.9521729781560437e-15 1.1013548979497733e-15
lhumerus -45.78565543932915 -9.557361232155952 96.85834507966821
lradius 111.72426743576025
lwrist 46.40511949121751
lhand -18.015638856520916 6.468168946943056
lfingers 7.125020000000001
lthumb 8.278581392475427 36.01604764126354
rclavicle -1.952176533109819e-15 1.1013521049827522e-15
rhumerus -52.57725810773595 14.498574783149119 -102.78195669038162
rradius 112.990304028393
rwrist -15.75618080075673
rhand -24.222660707887613 -105.61643808708354
rfingers 7.125020000000001
rthumb 3.3413488433742677 13.486111645139228
118
root 0.8020268747607084 17.98094977583959 40.61711826040039 2.7985304757287697 3.095911521974392 1.0721852559353127
lfemur -13.978675235967344 0.9597728537766947 -23.67126786607961
ltibia 40.21088462121397
lfoot 0.6798069185849407 -11.283612022541226
ltoes -8.528453364110419
rfemur -27.43510089527374 3.934436457214002 26.71384839852753
rtibia 58.52602388374272
rfoot 4.0103981422063635 -3.9614399493562753
rtoes -0.8174262392615921
lowerback 14.053597697712387 -0.3952075226704163 0.26025163603687185
upperback -1.1004637433461057 -0.7200453528333539 1.046737145600004
thorax -9.3462760998892 -0.14697010461147952 1.2946471226300238
lowerneck -20.250789535850476 -4.601934454891968 -1.9754825275751238
upperneck 15.72970730353964 -6.156018776107073 3.0280103535388196
head 8.268505552734862 -3.001002625660792 0.5528629190258428
lclavicle -1.9521729781560437e-15 1.1013548979497733e-15
lhumerus -45.592366122019605 -9.30839059787501 96.9532804525694
lradius 111.55354554491765
lwrist 46.43831893067415
lhand -17.94226053289343 6.374235587220661
lfingers 7.125020000000001
lthumb 8.266433295506399 35.937005897771094
rclavicle -1.952176533109819e-15 1.1013521049827522e-15
rhumerus -53.13831822176622 14.20977016745417 -102.67946426344298
rradius 113.02533063185781
rwrist -15.581244205493302
rhand -24.138987146195678 -103.99374496469267
rfingers 7.125020000000001
rthumb 3.8180005515243294 14.187799730019382
